<svg display="none" xmlns="http://www.w3.org/2000/svg">
    <symbol id="pinterest" viewBox="0 0 455.731 455.731">
        <g>
            <path d="M160.601,382C86.223,350.919,37.807,262.343,68.598,172.382
		C99.057,83.391,197.589,36.788,286.309,69.734c88.972,33.04,132.978,131.213,98.486,219.22
		c-35.709,91.112-131.442,123.348-203.22,100.617c5.366-13.253,11.472-26.33,15.945-39.943c4.492-13.672,7.356-27.878,10.725-41.037
		c2.9,2.44,5.814,5.027,8.866,7.439c15.861,12.535,33.805,13.752,52.605,9.232c19.977-4.803,35.764-16.13,47.455-32.78
		c19.773-28.16,26.751-60.019,21.972-93.546c-4.942-34.668-25.469-59.756-57.65-72.389c-48.487-19.034-94.453-12.626-134.269,22.259
		c-30.622,26.83-40.916,72.314-26.187,107.724c5.105,12.274,13.173,21.907,25.379,27.695c6.186,2.933,8.812,1.737,10.602-4.724
		c0.133-0.481,0.295-0.955,0.471-1.422c3.428-9.04,2.628-16.472-3.473-25.199c-11.118-15.906-9.135-34.319-3.771-51.961
		c10.172-33.455,40.062-55.777,75.116-56.101c9.39-0.087,19.056,0.718,28.15,2.937c27.049,6.599,44.514,27.518,46.264,55.253
		c1.404,22.242-2.072,43.849-11.742,64.159c-4.788,10.055-11.107,18.996-20.512,25.325c-8.835,5.945-18.496,8.341-28.979,5.602
		c-14.443-3.774-22.642-16.95-18.989-31.407c3.786-14.985,8.685-29.69,12.399-44.69c1.57-6.344,2.395-13.234,1.751-19.696
		c-1.757-17.601-18.387-25.809-33.933-17.216c-10.889,6.019-16.132,16.079-18.564,27.719c-2.505,11.992-1.292,23.811,2.61,35.439
		c0.784,2.337,0.9,5.224,0.347,7.634c-7.063,30.799-14.617,61.49-21.306,92.369c-1.952,9.011-1.59,18.527-2.239,27.815
		C160.495,377.839,160.601,379.635,160.601,382z"/>
        </g>
    </symbol>

    <symbol id="github" viewBox="0 0 512 512">
        <g>
            <path d="m256 0c-140.699219 0-256 116.300781-256 257 0 139.882812 114.25 255 256 255 141.574219 0 256-114.945312 256-255 0-140.699219-115.300781-257-256-257zm45 477.5c-14.398438 3-29.699219 4.5-45 4.5s-30.601562-1.5-45-4.5v-70.199219c0-16.800781 4.5-22.800781 10.5-30.902343 3.054688-3.492188 4.898438-6.625 18.597656-27.296876l-23.097656-3.601562c-59.402344-8.699219-82.800781-39.601562-92.101562-63.601562-12-32.097657-5.699219-72.300782 15.902343-97.796876 3.300781-3.902343 6-10.503906 3.601563-17.402343-4.503906-13.800781-3.902344-35.699219-.902344-44.101563 15.90625 2.273438 32.261719 13.667969 45.902344 21.902344 6.285156 3.667969 9.582031 2.699219 12.597656 3 10.960938-2.28125 28.058594-7.800781 54.300781-7.800781 16.199219 0 33.300781 2.398437 50.101563 7.199219 3.003906-.070313 7.832031 2.484374 16.199218-2.398438 14.257813-8.6875 30.058594-19.691406 45.898438-21.902344 3 8.402344 3.601562 30.300782-.898438 44.101563-2.402343 6.898437.296876 13.5 3.601563 17.402343 21.597656 25.5 27.898437 65.699219 15.898437 97.796876-9.300781 24-32.699218 54.902343-92.101562 63.601562l-23.097656 3.601562c14.160156 21.367188 15.652344 23.929688 18.601562 27.296876 5.996094 8.101562 10.496094 14.101562 10.496094 30.902343zm30-8.699219v-61.5c0-17.101562-3.601562-28.5-8.402344-36.902343 45.601563-12.296876 78.003906-39.300782 92.402344-78 15.300781-40.796876 8.402344-89.398438-17.101562-123 4.503906-20.097657 4.503906-52.199219-6.296876-67.199219-4.800781-6.597657-11.402343-10.199219-19.800781-10.199219-.300781 0-.300781 0-.300781 0-23.261719 1.257812-41.570312 12.972656-61.199219 24.898438-18-4.800782-36.300781-7.199219-54.601562-7.199219-18.597657 0-37.199219 2.699219-53.695313 7.199219-20.664062-12.460938-38.796875-23.671876-62.703125-24.898438-7.5 0-14.101562 3.601562-18.902343 10.199219-10.796876 15-10.796876 47.101562-6.296876 67.199219-25.503906 33.601562-32.402343 82.5-17.101562 123 14.398438 38.699218 46.800781 65.703124 92.402344 78-3.722656 6.511718-6.667969 14.914062-7.828125 26.285156-9.210938 3.175781-17.199219 4.210937-24.628907 2.027344-7.835937-2.316407-13.941406-7.546876-19.246093-16.46875-11.914063-20.015626-32.207031-36.355469-55.3125-34.230469l2.636719 29.882812c10.699218-.980469 21.347656 10.339844 26.878906 19.671875 9.125 15.367188 21.417968 25.445313 36.546875 29.914063 11.230469 3.308593 21.496093 3.230469 32.550781.871093v40.449219c-87.300781-30.601562-151-114-151-211.800781 0-124.199219 101.800781-227 226-227s226 102.800781 226 227c0 97.800781-63.699219 181.199219-151 211.800781zm0 0"/>
        </g>
    </symbol>
</svg>
